<svg width="39" height="41" viewBox="0 0 39px 41px" fill="none" xmlns="http://www.w3.org/2000/svg">
<path d="M19.5 0C16.9392 0 14.4035 0.520383 12.0377 1.53144C9.67182 2.54249 7.52216 4.02441 5.71142 5.8926C2.05446 9.66556 0 14.7828 0 20.1186C0 25.4544 2.05446 30.5716 5.71142 34.3446C7.52216 36.2127 9.67182 37.6947 12.0377 38.7057C14.4035 39.7168 16.9392 40.2372 19.5 40.2372C24.6717 40.2372 29.6316 38.1175 33.2886 34.3446C36.9455 30.5716 39 25.4544 39 20.1186C39 17.4766 38.4956 14.8604 37.5157 12.4195C36.5357 9.97863 35.0993 7.76078 33.2886 5.8926C31.4778 4.02441 29.3282 2.54249 26.9623 1.53144C24.5965 0.520383 22.0608 0 19.5 0ZM27.69 28.5684L17.55 22.1304V10.0593H20.475V20.521L29.25 25.953L27.69 28.5684Z" fill="#D6AF4F"/>
</svg>
