<svg width="46" height="46" viewBox="0 0 46 46" fill="none" xmlns="http://www.w3.org/2000/svg">
<path d="M40.8889 0H5.11111C3.75556 0 2.45553 0.53849 1.49701 1.49701C0.53849 2.45553 0 3.75556 0 5.11111V40.8889C0 42.2444 0.53849 43.5445 1.49701 44.503C2.45553 45.4615 3.75556 46 5.11111 46H40.8889C42.2444 46 43.5445 45.4615 44.503 44.503C45.4615 43.5445 46 42.2444 46 40.8889V5.11111C46 3.75556 45.4615 2.45553 44.503 1.49701C43.5445 0.53849 42.2444 0 40.8889 0ZM40.8889 40.8889H5.11111V5.11111H40.8889V40.8889ZM35.7778 13.8L26.5778 23L35.7778 32.2L32.2 35.7778L23 26.5778L13.8 35.7778L10.2222 32.2L19.4222 23L10.2222 13.8L13.8 10.2222L23 19.4222L32.2 10.2222L35.7778 13.8Z" fill="#C49545"/>
</svg>
