<svg width="45" height="45" viewBox="0 0 45 45" fill="none" xmlns="http://www.w3.org/2000/svg">
<path d="M22.5904 0C10.2437 0 0.180905 10.0125 0.180905 22.2975C0.180905 26.235 1.22111 30.06 3.16583 33.435L0 45L11.8719 41.895C15.1508 43.6725 18.8367 44.6175 22.5904 44.6175C34.9372 44.6175 45 34.605 45 22.32C45 16.3575 42.6708 10.755 38.4422 6.5475C34.2136 2.3175 28.5829 0 22.5904 0ZM22.6131 3.7575C27.5879 3.7575 32.2462 5.6925 35.7739 9.2025C39.2789 12.7125 41.2236 17.37 41.2236 22.32C41.2236 32.535 32.8568 40.8375 22.5904 40.8375C19.2437 40.8375 15.9648 39.96 13.1156 38.25L12.4372 37.8675L5.38191 39.7125L7.25879 32.8725L6.80653 32.1525C4.95226 29.25 3.95729 25.8075 3.95729 22.2975C3.9799 12.0825 12.3241 3.7575 22.6131 3.7575ZM14.6533 11.9925C14.2915 11.9925 13.6809 12.1275 13.1608 12.69C12.6633 13.2525 11.1935 14.625 11.1935 17.3475C11.1935 20.0925 13.206 22.725 13.4548 23.1075C13.7714 23.49 17.4347 29.115 23.0653 31.5C24.3995 32.1075 25.4397 32.445 26.2538 32.6925C27.5879 33.12 28.809 33.0525 29.7814 32.9175C30.8668 32.76 33.0829 31.5675 33.5578 30.2625C34.0327 28.9575 34.0327 27.855 33.897 27.6075C33.7387 27.3825 33.3769 27.2475 32.8116 27C32.2462 26.685 29.4874 25.335 28.9899 25.155C28.4698 24.975 28.1533 24.885 27.7236 25.425C27.3618 25.9875 26.2764 27.2475 25.9598 27.6075C25.6206 27.99 25.304 28.035 24.7613 27.765C24.1734 27.4725 22.3643 26.8875 20.2387 24.9975C18.5653 23.5125 17.4573 21.69 17.1181 21.1275C16.8467 20.5875 17.0955 20.25 17.3668 20.0025C17.6156 19.755 17.9774 19.35 18.2035 19.0125C18.4975 18.6975 18.5879 18.45 18.7688 18.09C18.9497 17.7075 18.8593 17.3925 18.7236 17.1225C18.5879 16.875 17.4573 14.085 16.9824 12.9825C16.5301 11.9025 16.0779 12.0375 15.7161 12.015C15.3995 12.015 15.0377 11.9925 14.6533 11.9925Z" fill="#D6AF4F"/>
</svg>
