<svg width="126" height="126" viewBox="0 0 126 126" fill="none" xmlns="http://www.w3.org/2000/svg">
<path d="M39.3696 54.1586C39.3696 61.0071 41.8642 67.9425 46.2137 73.1868C50.7876 78.7015 56.7586 81.7388 63.0263 81.7388C69.2934 81.7388 75.2569 78.7032 79.819 73.1915C84.1542 67.9536 86.6405 61.0209 86.6405 54.1706V48.1369C88.3937 40.587 88.7613 34.0532 88.7586 29.8859C88.7549 24.5053 88.1697 20.7878 87.6234 19.103C87.3333 18.208 86.4628 17.6644 85.5631 17.7515C85.4145 17.7382 85.2621 17.7397 85.1078 17.7616C81.4462 18.2848 76.9543 17.3826 72.1983 16.4275C64.4926 14.8803 55.7867 13.1345 49.1284 17.7507C49.0691 17.7453 49.0093 17.7416 48.9485 17.7416C45.2116 17.7416 41.8938 19.2349 39.6061 21.9464C37.4929 24.4511 36.3291 27.8972 36.3291 31.6499C36.3291 37.7961 38.9436 49.1545 39.3693 50.9636V54.1586H39.3696ZM76.7857 70.6811C72.9855 75.2727 68.0988 77.8015 63.0263 77.8015C57.9511 77.8015 53.0566 75.27 49.2443 70.6734C45.471 66.1239 43.3071 60.1045 43.3071 54.1588V51.7976C43.3071 46.9281 46.5769 40.3084 47.818 37.9718C65.5234 35.9486 77.3743 40.8378 80.0646 42.0968L82.703 48.3136V54.1709C82.703 60.1197 80.5462 66.1374 76.7857 70.6811ZM48.9488 21.6791C49.0915 21.6791 49.2306 21.6631 49.3647 21.6341C49.9056 21.7493 50.4913 21.6388 50.9665 21.278C56.275 17.246 63.976 18.7922 71.4235 20.288C75.409 21.0883 79.2215 21.8536 82.7653 21.8536C83.256 21.8536 83.7415 21.8388 84.2219 21.8073C84.8152 25.1412 85.2944 32.3183 83.96 41.1956L83.4041 39.8859C83.2309 39.4779 82.9255 39.1405 82.5366 38.9276C81.9711 38.6183 68.4657 31.4023 46.4859 34.1615C45.8414 34.1942 45.2256 34.5412 44.8786 35.1417C44.7526 35.3597 43.0396 38.3512 41.5566 42.177C40.8836 38.5309 40.2666 34.4305 40.2666 31.6494C40.2668 24.7622 44.6271 21.6791 48.9488 21.6791Z" fill="#C49545"/>
<path d="M96.9324 86.0974C96.89 86.0856 96.8472 86.0752 96.8042 86.0661L85.0906 83.616L81.994 78.9203C81.9723 78.8871 81.9492 78.8546 81.9256 78.8229C81.3625 78.0723 80.5054 77.5769 79.5739 77.4637C78.6427 77.3507 77.6915 77.6264 76.9651 78.2207C76.9523 78.231 76.9395 78.2418 76.9272 78.2524L63 90.2414L49.0726 78.2527C49.06 78.2421 49.0475 78.2315 49.0349 78.2209C48.3084 77.6266 47.3573 77.3507 46.4261 77.4637C45.4946 77.5769 44.6372 78.0723 44.0744 78.8229C44.0505 78.8546 44.0276 78.8871 44.006 78.9203L40.9094 83.616L29.1958 86.0661C29.1527 86.0752 29.1099 86.0856 29.0676 86.0974C25.6617 87.0515 22.7641 89.1632 20.6881 92.2042C18.7942 94.9782 17.7512 98.327 17.7512 101.634V105.335C17.7512 108.582 20.6428 111.225 24.1972 111.225H58.5174C58.5198 111.225 58.5223 111.225 58.5248 111.225C58.5275 111.225 58.5302 111.225 58.5329 111.225H67.4668C67.4695 111.225 67.4722 111.225 67.4749 111.225C67.4774 111.225 67.4799 111.225 67.4823 111.225H101.803C105.357 111.225 108.248 108.583 108.248 105.335V101.634C108.248 98.3268 107.206 94.9782 105.312 92.2042C103.236 89.1635 100.338 87.0517 96.9324 86.0974ZM79.0554 81.6163L81.4996 85.3224L71.7176 98.7724L65.8923 92.9474L79.0554 81.6163ZM61.7085 103.366H64.2915L65.0758 107.287H60.9242L61.7085 103.366ZM64.9687 98.3497C64.9687 98.9979 64.5738 99.428 64.3124 99.428H61.6873C61.426 99.428 61.031 98.9979 61.031 98.3497V97.5919L62.9997 95.6232L64.9685 97.5919V98.3497H64.9687ZM46.9446 81.6163L60.1076 92.9472L54.2824 98.7722L44.5004 85.3222L46.9446 81.6163ZM21.6885 105.335V101.634C21.6885 96.9895 24.5668 91.4819 30.0689 89.9059L41.2628 87.5646L52.4531 102.951C52.7918 103.417 53.3172 103.711 53.8913 103.756C53.9427 103.761 53.9942 103.762 54.0454 103.762C54.5654 103.762 55.0667 103.556 55.4373 103.186L57.7331 100.89C57.8372 101.082 57.9516 101.267 58.0776 101.442L56.9087 107.287H24.1972C22.8372 107.287 21.6885 106.393 21.6885 105.335ZM104.311 105.335C104.311 106.393 103.163 107.287 101.803 107.287H69.0913L67.9224 101.442C68.0484 101.267 68.1628 101.083 68.2669 100.89L70.5627 103.186C70.9333 103.557 71.4346 103.762 71.9546 103.762C72.0058 103.762 72.0572 103.761 72.1087 103.757C72.6828 103.712 73.2082 103.417 73.5468 102.952L84.7372 87.5648L95.931 89.9062C101.433 91.4822 104.311 96.9898 104.311 101.634V105.335V105.335Z" fill="#C49545"/>
<path d="M15.7906 57.8515C15.7906 62.6348 17.4183 67.1235 20.3736 70.4911C23.3732 73.9091 27.3792 75.7914 31.6531 75.7914C34.8575 75.7914 37.9425 74.7219 40.575 72.6988C41.437 72.0363 41.5987 70.8002 40.936 69.9381C40.2732 69.076 39.0379 68.9141 38.1753 69.5768C36.2373 71.0664 33.9819 71.8539 31.6531 71.8539C25.0774 71.8539 19.7279 65.5724 19.7279 57.8515V56.6943C19.7279 53.5827 21.0147 49.4636 21.689 47.518C25.938 47.1415 29.7323 47.6986 32.8311 48.1563L33.1823 48.208C33.2798 48.2223 33.3762 48.2292 33.4717 48.2292C34.432 48.2292 35.2729 47.5256 35.4168 46.5469C35.5753 45.4712 34.8316 44.4708 33.7559 44.3124L33.4062 44.2609C29.7882 43.7264 25.2864 43.062 20.0278 43.7353C20.0217 43.736 20.0153 43.7365 20.0091 43.7375C20.0084 43.7375 20.0077 43.7375 20.0069 43.7377C20 43.7385 19.9934 43.7404 19.9865 43.7414C19.9301 43.7493 19.874 43.7589 19.8187 43.7717C19.7874 43.7788 19.7574 43.7884 19.7269 43.797C19.6966 43.8057 19.6663 43.813 19.6366 43.8229C19.5979 43.8357 19.5608 43.8509 19.5234 43.8659C19.5024 43.8746 19.481 43.8819 19.4601 43.8913C19.422 43.9083 19.3851 43.9272 19.3484 43.9467C19.3287 43.957 19.3088 43.9664 19.2893 43.9774C19.2556 43.9964 19.2236 44.0173 19.1911 44.0382C19.1692 44.0525 19.1471 44.0658 19.1257 44.0808C19.0986 44.1 19.0728 44.1207 19.0469 44.1408C19.0218 44.1605 18.9965 44.1795 18.9724 44.2004C18.9517 44.2181 18.9325 44.2371 18.9128 44.2558C18.8855 44.2814 18.8582 44.3067 18.8323 44.3338C18.8163 44.3508 18.8016 44.3687 18.7861 44.3859C18.7592 44.4165 18.7322 44.4465 18.7071 44.4787C18.6923 44.4974 18.6793 44.5174 18.6652 44.5366C18.6423 44.5683 18.619 44.5998 18.5978 44.6333C18.5803 44.6606 18.5648 44.6896 18.5488 44.7179C18.5338 44.7445 18.5178 44.7701 18.5038 44.7977C18.4772 44.8501 18.4531 44.904 18.4312 44.9586C18.4292 44.9633 18.427 44.9677 18.425 44.9724C18.425 44.9726 18.4245 44.9739 18.4243 44.9741C18.4226 44.9788 18.4209 44.9832 18.4191 44.9876C18.3849 45.0755 18.2429 45.4434 18.0404 46.018C17.8831 44.7662 17.78 43.5871 17.78 42.6426C17.78 38.3874 19.8334 36.4826 21.8686 36.4826C21.9649 36.4826 22.0586 36.4735 22.1511 36.4603C22.2444 36.4738 22.3384 36.4829 22.4332 36.4829C22.8483 36.4829 23.2667 36.3522 23.6225 36.0818C25.4601 34.6859 27.8307 34.2169 31.308 34.5602C32.3891 34.6679 33.3538 33.8765 33.4609 32.7944C33.5677 31.7126 32.7772 30.7487 31.6952 30.6419C29.027 30.3783 25.1651 30.3084 21.8044 32.5471C17.1136 32.585 13.8428 36.725 13.8428 42.6429C13.8428 46.7891 15.4773 54.3454 15.7906 55.7555V57.8515V57.8515Z" fill="#C49545"/>
<path d="M13.7812 93.5105H5.01711C4.39917 93.5105 3.9375 93.1408 3.9375 92.8101V90.2898C3.9375 87.3699 5.73325 83.9111 9.1665 82.9156L16.3357 81.4159L20.0382 86.7572C20.4206 87.3086 21.0339 87.6045 21.658 87.6045C22.0448 87.6045 22.4359 87.4905 22.7777 87.2535C23.6713 86.6341 23.8935 85.4076 23.2741 84.514L19.5866 79.1942L20.6756 77.5429L28.3534 83.2754C29.2249 83.9261 30.4583 83.7469 31.1087 82.8758C31.7594 82.0046 31.5805 80.7709 30.7091 80.1205L22.2821 73.8289C21.6617 73.3404 20.8609 73.1154 20.0756 73.2104C19.2723 73.3079 18.5331 73.7351 18.0475 74.3826C18.0237 74.4143 18.001 74.4468 17.9791 74.48L16.0133 77.461L8.29188 79.0761C8.24882 79.0852 8.206 79.0955 8.16367 79.1073C2.80424 80.6085 0 85.8692 0 90.2898V92.8101C0 95.3675 2.25077 97.448 5.01711 97.448H13.7812C14.8685 97.448 15.75 96.5665 15.75 95.4792C15.75 94.392 14.8685 93.5105 13.7812 93.5105Z" fill="#C49545"/>
<path d="M92.4919 32.4787C95.3864 32.5366 98.5866 33.0546 101.682 33.5554C104.02 33.9336 106.26 34.2927 108.205 34.4177C108.137 39.0797 107.831 43.2721 107.484 46.6478C107.48 46.6449 107.476 46.6424 107.472 46.6394C107.441 46.6168 107.409 46.5956 107.377 46.575C107.362 46.5654 107.348 46.5545 107.333 46.5454C107.316 46.5351 107.298 46.5255 107.281 46.5152C107.279 46.5139 107.277 46.5125 107.274 46.5112C103.335 44.1384 98.5598 42.7694 92.6784 42.3284C91.5931 42.2462 90.6494 43.0603 90.5679 44.1443C90.4865 45.2286 91.2996 46.1736 92.3838 46.2548C97.4005 46.6311 101.462 47.7326 104.779 49.6145C105.245 50.7143 106.272 53.4978 106.272 56.6943V57.8515C106.272 65.5727 100.922 71.854 94.3467 71.854C92.0179 71.854 89.7627 71.0665 87.8245 69.5769C86.9624 68.9144 85.7263 69.0761 85.0638 69.9381C84.4013 70.8002 84.5627 72.0361 85.4248 72.6988C88.0573 74.7222 91.1423 75.7915 94.3467 75.7915C98.6209 75.7915 102.627 73.9091 105.626 70.4911C108.581 67.1233 110.209 62.6346 110.209 57.8515V55.7238C110.486 54.2521 112.111 45.0871 112.155 32.9739C112.205 32.7797 112.227 32.5747 112.215 32.3636C112.153 31.313 111.277 30.5053 110.238 30.5129C110.221 30.5124 110.205 30.5105 110.188 30.5105C110.15 30.5105 110.113 30.5142 110.075 30.5161C108.17 30.6151 105.324 30.1558 102.31 29.6683C99.2314 29.1702 95.7418 28.6055 92.5704 28.5422C91.4763 28.5159 90.5844 29.3841 90.5625 30.4711C90.5411 31.5581 91.4049 32.4571 92.4919 32.4787Z" fill="#C49545"/>
<path d="M117.837 79.1071C117.794 79.0953 117.751 79.0849 117.708 79.0758L109.987 77.4607L108.021 74.4798C107.999 74.4468 107.976 74.4143 107.953 74.3823C107.467 73.7349 106.728 73.3077 105.925 73.2102C105.139 73.1152 104.339 73.3399 103.718 73.8286L95.2912 80.1203C94.4198 80.7707 94.2408 82.0044 94.8915 82.8755C95.5422 83.7469 96.7759 83.9259 97.6468 83.2752L105.325 77.5427L106.414 79.194L102.726 84.5135C102.106 85.4071 102.329 86.6336 103.222 87.253C103.564 87.49 103.955 87.604 104.342 87.604C104.966 87.604 105.579 87.3082 105.962 86.7567L109.664 81.4155L116.833 82.9151C120.266 83.9106 122.062 87.3697 122.062 90.2894V92.8096C122.062 93.1401 121.601 93.51 120.983 93.51H112.219C111.131 93.51 110.25 94.3915 110.25 95.4787C110.25 96.566 111.131 97.4475 112.219 97.4475H120.983C123.749 97.4475 126 95.367 126 92.8096V90.2894C126 85.8693 123.196 80.6085 117.837 79.1071Z" fill="#C49545"/>
</svg>
