<svg width="134" height="134" viewBox="0 0 134 134" fill="none" xmlns="http://www.w3.org/2000/svg">
<path d="M133.481 78.9711L123.507 67.0005L133.481 55.03C134.037 54.3645 134.155 53.4377 133.789 52.6539C133.42 51.8701 132.632 51.3676 131.765 51.3676H102.436L100.477 37.653C100.318 36.552 99.3782 35.7347 98.2659 35.7347H81.2079C78.5772 33.5415 68.429 25.0863 68.429 25.0863C67.6004 24.3941 66.3988 24.3941 65.5703 25.0863L52.7913 35.7347H35.7333C34.621 35.7347 33.681 36.552 33.5224 37.6509L31.5637 51.3679H2.23451C1.36797 51.3679 0.579692 51.8703 0.2112 52.6542C-0.157293 53.4404 -0.0366433 54.3671 0.519498 55.0303L10.4934 67.0008L0.519498 78.9713C-0.0366433 79.6369 -0.154938 80.5636 0.2112 81.3474C0.579692 82.1336 1.36797 82.6337 2.23451 82.6337H31.5642C32.1604 86.7989 33.525 96.3507 33.525 96.3507C33.6812 97.4517 34.6237 98.2669 35.7336 98.2669H52.7916L65.5705 108.915C65.9859 109.262 66.4928 109.433 66.9997 109.433C67.5067 109.433 68.016 109.262 68.429 108.915L81.2056 98.2669C84.6761 98.2669 98.2701 98.2758 98.2656 98.2669C99.3779 98.2669 100.318 97.4496 100.477 96.3507C100.477 96.3507 101.841 86.7989 102.437 82.6337H131.765C132.632 82.6337 133.42 82.1312 133.788 81.3474C134.157 80.561 134.037 79.6342 133.481 78.9711ZM20.6191 68.4298L28.7328 78.1668H7.00267L15.1163 68.4298C15.8065 67.6012 15.8065 66.3996 15.1163 65.5711L7.00267 55.834H28.7325L20.6188 65.5711C19.929 66.3996 19.929 67.6012 20.6191 68.4298ZM90.9117 57.4129L59.6458 88.6791C59.2104 89.1169 58.6385 89.3333 58.0669 89.3333C57.4951 89.3333 56.9235 89.1146 56.488 88.6791L40.8551 73.0461C39.9841 72.1751 39.9841 70.7593 40.8551 69.8883L47.5549 63.1884C48.4259 62.3174 49.8418 62.3174 50.7128 63.1884L57.2763 69.7519C57.7118 70.1874 58.4197 70.1874 58.8552 69.7519L81.0519 47.5552C81.9229 46.6842 83.3388 46.6842 84.2098 47.5552L90.9096 54.2551C91.7827 55.1284 91.7827 56.5419 90.9117 57.4129ZM105.267 78.1671L113.381 68.43C114.071 67.6014 114.071 66.3999 113.381 65.5713L105.267 55.8343H126.997L118.883 65.5713C118.193 66.3999 118.193 67.6014 118.883 68.43L126.997 78.1671H105.267Z" fill="#C49545"/>
<path d="M85.3867 55.0457L83.4236 53.0826C82.9881 52.6471 82.2801 52.6471 81.8447 53.0826L59.6458 75.2793C58.7749 76.1503 57.359 76.1503 56.488 75.2793L49.9245 68.7158C49.489 68.2803 48.7811 68.2803 48.3456 68.7158L46.3825 70.6789C45.947 71.1144 45.947 71.8223 46.3825 72.2578L57.2786 83.154C57.7141 83.5895 58.4221 83.5895 58.8576 83.154L85.3867 56.6246C85.8222 56.1891 85.8222 55.4812 85.3867 55.0457Z" fill="#C49545"/>
</svg>
