<svg width="123" height="47" viewBox="0 0 123 47" fill="none" xmlns="http://www.w3.org/2000/svg">
<path d="M44.688 46.96C41.328 46.96 38.24 46.144 35.424 44.512C32.608 42.848 30.368 40.576 28.704 37.696C27.072 34.784 26.256 31.52 26.256 27.904C26.256 24.416 27.104 21.232 28.8 18.352C30.528 15.472 32.816 13.2 35.664 11.536C38.544 9.872 41.6 9.04 44.832 9.04C47.072 9.04 48.848 9.248 50.16 9.664C51.472 10.048 52.992 10.736 54.72 11.728V13.504C53.088 12.384 51.568 11.6 50.16 11.152C48.784 10.672 47.056 10.432 44.976 10.432C41.808 10.432 38.912 11.248 36.288 12.88C33.696 14.48 31.632 16.64 30.096 19.36C28.592 22.048 27.84 24.944 27.84 28.048C27.84 31.184 28.608 34.096 30.144 36.784C31.68 39.472 33.712 41.616 36.24 43.216C38.8 44.784 41.552 45.568 44.496 45.568C46.608 45.568 48.448 45.328 50.016 44.848C51.584 44.336 53.152 43.552 54.72 42.496V44.272C53.184 45.2 51.6 45.872 49.968 46.288C48.368 46.736 46.608 46.96 44.688 46.96ZM70.1085 46.768C67.9325 46.768 65.9645 46.24 64.2045 45.184C62.4445 44.096 61.0685 42.672 60.0765 40.912C59.0845 39.12 58.5885 37.184 58.5885 35.104C58.5885 33.056 59.0845 31.152 60.0765 29.392C61.1005 27.632 62.4765 26.24 64.2045 25.216C65.9645 24.16 67.9165 23.632 70.0605 23.632C72.1725 23.632 74.0925 24.16 75.8205 25.216C77.5805 26.24 78.9565 27.632 79.9485 29.392C80.9405 31.152 81.4365 33.056 81.4365 35.104C81.4365 37.248 80.9565 39.216 79.9965 41.008C79.0365 42.768 77.6925 44.176 75.9645 45.232C74.2685 46.256 72.3165 46.768 70.1085 46.768ZM70.1085 45.424C71.9325 45.424 73.5965 44.96 75.1005 44.032C76.6045 43.104 77.7725 41.872 78.6045 40.336C79.4685 38.768 79.9005 37.056 79.9005 35.2C79.9005 33.376 79.4685 31.68 78.6045 30.112C77.7405 28.544 76.5565 27.296 75.0525 26.368C73.5485 25.44 71.8845 24.976 70.0605 24.976C68.2365 24.976 66.5565 25.456 65.0205 26.416C63.5165 27.344 62.3165 28.592 61.4205 30.16C60.5565 31.728 60.1245 33.424 60.1245 35.248C60.1245 37.072 60.5565 38.768 61.4205 40.336C62.3165 41.872 63.5165 43.104 65.0205 44.032C66.5565 44.96 68.2525 45.424 70.1085 45.424ZM85.7584 24.4H87.2944V29.392C87.9344 27.824 88.8624 26.592 90.0784 25.696C91.3264 24.8 92.7344 24.352 94.3024 24.352C95.2944 24.352 96.3024 24.56 97.3264 24.976V26.752C96.3984 26.048 95.3584 25.696 94.2064 25.696C93.0544 25.696 91.9344 26.048 90.8464 26.752C89.7904 27.456 88.9264 28.4 88.2544 29.584C87.6144 30.768 87.2944 32.032 87.2944 33.376V46H85.7584V24.4ZM110.192 45.232C111.856 45.232 113.44 44.8 114.944 43.936C116.448 43.072 117.696 41.888 118.688 40.384V42.832C117.504 44.144 116.208 45.104 114.8 45.712C113.392 46.288 111.792 46.576 110 46.576C108.016 46.576 106.144 46.048 104.384 44.992C102.656 43.936 101.264 42.528 100.208 40.768C99.1843 39.008 98.6723 37.136 98.6723 35.152C98.6723 33.008 99.1843 31.088 100.208 29.392C101.232 27.664 102.624 26.32 104.384 25.36C106.176 24.4 108.16 23.92 110.336 23.92C113.664 23.92 116.496 25.232 118.832 27.856L103.76 42.736C104.816 43.6 105.84 44.24 106.832 44.656C107.824 45.04 108.944 45.232 110.192 45.232ZM100.208 35.008C100.208 37.664 101.088 39.936 102.848 41.824L116.912 27.856C115.856 26.928 114.832 26.272 113.84 25.888C112.848 25.472 111.664 25.264 110.288 25.264C108.336 25.264 106.592 25.696 105.056 26.56C103.552 27.392 102.368 28.544 101.504 30.016C100.64 31.488 100.208 33.152 100.208 35.008Z" fill="white"/>
<path d="M2.12216 47V43.0114L11.4418 34.3821C12.2344 33.6151 12.8991 32.9247 13.4361 32.3111C13.9815 31.6974 14.3949 31.0966 14.6761 30.5085C14.9574 29.9119 15.098 29.2685 15.098 28.5781C15.098 27.8111 14.9233 27.1506 14.5739 26.5966C14.2244 26.0341 13.7472 25.6037 13.142 25.3054C12.5369 24.9986 11.8509 24.8452 11.0838 24.8452C10.2827 24.8452 9.58381 25.0071 8.98722 25.331C8.39063 25.6548 7.9304 26.1193 7.60653 26.7244C7.28267 27.3295 7.12074 28.0497 7.12074 28.8849H1.86648C1.86648 27.1719 2.25426 25.6847 3.02983 24.4233C3.8054 23.1619 4.89205 22.1861 6.28977 21.4957C7.6875 20.8054 9.2983 20.4602 11.1222 20.4602C12.9972 20.4602 14.6293 20.7926 16.0185 21.4574C17.4162 22.1136 18.5028 23.0256 19.2784 24.1932C20.054 25.3608 20.4418 26.6989 20.4418 28.2074C20.4418 29.196 20.2457 30.1719 19.8537 31.1349C19.4702 32.098 18.7841 33.1676 17.7955 34.3438C16.8068 35.5114 15.4134 36.9134 13.6151 38.5497L9.79261 42.2955V42.4744H20.7869V47H2.12216Z" fill="white"/>
</svg>
